# xmcd
#
# Track frame offsets:
#	150
#	10230
#	22170
#	44097
#	54837
#	64945
#	77732
#	90102
#	100200
#	110987
#	119137
#	134427
#	155742
#	163665
#	174770
#	187477
#	200580
#	217012
#	242652
#	251845
#	260792
#	276442
#	285880
#	305682
#
# Disc length: 4183 seconds
#
# Revision: 2
# Processed by: cddbd v1.5.1PL2 Copyright (c) Steve Scherf et al.
# Submitted via: audiograbber 1.83.01
#
DISCID=74105518
DTITLE=Various Artist - Ultra Lounge Promotional 3 - Welcome to the Ultra Loun
DTITLE=ge
DYEAR=1900
DGENRE=Lounge
TTITLE0=Jack Marshall - The Munsters Theme
TTITLE1=Si Zetner - Mr. Lucky
TTITLE2=The Ventures - One Step Beyond/The Twilight Zone
TTITLE3=Nelson Riddle and His Orchestra - My Three Sons
TTITLE4=Wanda De Sah and Sergio Mendes - So Nice (Somba De Verao)
TTITLE5=Billy May and His Orchestra - The Look of Love
TTITLE6=Laurindo Almeida - Misirlou
TTITLE7=Walter Wanderley - Que Sabe Voce De Mim
TTITLE8=Peggy Lee - The Boy From Ipanema
TTITLE9=Bobby Darin - Charade
TTITLE10=Dinah Washington - Is You Is, Or Is You Ain't My Baby
TTITLE11=Louis Prima - Just A Gigolo/I Ain't Got Nobody
TTITLE12=John Barry - Beat Girl
TTITLE13=Martin Denny - Cool
TTITLE14=Henry Jerome - Moon River
TTITLE15=Leroy Holmes - The Good, The Bad, And The Ugly
TTITLE16=Tina Contreras - Brazil
TTITLE17=Terry Snyder - Deep Night/Softly As In A Morning Sunrise
TTITLE18=Les Baxter - Balinese Bongos
TTITLE19=Jack Constanzo - The Inch Worm
TTITLE20=The John La Salle Quartet - Potluck
TTITLE21=John Buzon Trio - Squatty Roo
TTITLE22=Al Caiola - Big Noise From Winnetka/Midnight Swim
TTITLE23=Julie London - Hot Toddy
EXTD=
EXTT0=
EXTT1=
EXTT2=
EXTT3=
EXTT4=
EXTT5=
EXTT6=
EXTT7=
EXTT8=
EXTT9=
EXTT10=
EXTT11=
EXTT12=
EXTT13=
EXTT14=
EXTT15=
EXTT16=
EXTT17=
EXTT18=
EXTT19=
EXTT20=
EXTT21=
EXTT22=
EXTT23=
PLAYORDER=
